<?xml version="1.0" standalone="no"?>
<svg version="1.0" xmlns="http://www.w3.org/2000/svg"
 width="300.000000pt" height="309.000000pt" viewBox="0 0 300.000000 309.000000"
 preserveAspectRatio="xMidYMid meet">
<g transform="translate(0.000000,309.000000) scale(0.100000,-0.100000)"
fill="none" stroke="#000000">
<path d="M1895 3059 c-80 -17 -103 -18 -215 -9 -185 16 -353 -10 -458 -71 -33
-19 -33 -19 -120 7 -208 60 -459 77 -607 40 -230 -56 -396 -219 -460 -451 -11
-39 -19 -117 -22 -225 -6 -193 8 -298 82 -598 113 -456 257 -777 401 -893 97
-78 208 -92 308 -39 l57 29 41 -29 c66 -48 157 -72 273 -72 65 0 117 5 150 16
28 9 53 16 56 16 3 0 9 -73 12 -162 7 -175 22 -262 62 -373 46 -128 134 -214
238 -234 48 -9 57 -5 35 17 -9 9 3 11 53 8 78 -5 74 -3 60 -19 -9 -11 -1 -12
44 -6 178 24 312 115 387 263 42 82 76 227 89 370 5 67 12 145 15 174 l5 52
80 0 c113 0 220 24 318 72 103 51 193 134 210 193 6 21 9 40 7 42 -2 2 -14 -5
-27 -16 l-24 -19 4 45 c3 41 4 43 20 29 25 -23 32 -20 25 12 -11 43 -34 72
-75 93 -45 23 -86 24 -194 4 -123 -22 -120 -23 -84 38 53 90 155 307 197 422
148 400 187 728 107 903 -31 68 -172 210 -257 260 -144 85 -303 133 -440 131
-63 0 -69 -2 -48 -12 l25 -11 -33 -4 c-18 -2 -45 -2 -60 0 l-27 4 25 11 c44
20 -134 14 -235 -8z m485 -74 c95 -23 166 -51 243 -96 81 -48 199 -156 232
-214 96 -162 24 -593 -170 -1026 -52 -115 -140 -280 -189 -352 -14 -21 -26
-40 -26 -42 0 -9 77 -25 120 -25 25 0 95 7 157 16 105 16 113 16 137 0 20 -13
26 -25 26 -53 0 -31 -8 -44 -52 -87 -105 -101 -259 -151 -443 -144 l-101 3
-18 -155 c-23 -197 -52 -394 -67 -445 -29 -102 -92 -181 -181 -226 -113 -57
-267 -75 -363 -42 -92 31 -181 148 -205 268 -13 67 -33 432 -28 509 l4 62 -48
-32 c-120 -81 -292 -92 -426 -28 -59 29 -75 51 -70 97 4 44 47 69 160 97 81
21 98 29 140 68 26 25 48 49 48 53 0 5 -15 9 -32 9 -18 1 -58 9 -88 20 l-55
19 -65 -72 c-36 -40 -101 -112 -145 -161 -44 -49 -97 -98 -117 -108 -49 -25
-115 -25 -166 1 -144 73 -301 406 -417 884 -72 298 -88 409 -82 572 3 82 13
165 22 200 58 209 206 352 410 396 144 32 392 10 587 -51 l87 -27 32 19 c45
28 125 58 183 69 68 14 244 13 311 -1 47 -10 66 -8 137 9 46 12 115 25 153 30
91 13 283 5 365 -14z m205 -1645 c-4 -6 0 -21 9 -34 8 -13 12 -26 9 -30 -9 -9
-36 -7 -52 3 -11 7 -10 14 8 40 21 28 41 45 26 21z m-1439 -166 c45 -12 23
-36 -48 -54 -68 -17 -76 -10 -38 33 20 23 39 36 47 32 8 -3 26 -8 39 -11z
m-257 -273 c9 -17 6 -18 -29 -17 -37 1 -38 2 -23 18 21 23 40 23 52 -1z"/>
<path d="M2030 2914 c-14 -2 -40 -7 -59 -10 -34 -5 -33 -5 50 -52 64 -36 110
-72 194 -157 118 -118 183 -215 236 -349 34 -85 36 -132 13 -305 -14 -104 -15
-140 -5 -230 17 -163 14 -278 -9 -355 -11 -36 -25 -68 -30 -71 -12 -7 -13 -45
-2 -45 8 0 98 160 160 285 125 254 218 572 229 787 9 182 -15 241 -146 345
-134 107 -272 153 -471 158 -74 2 -146 2 -160 -1z m323 -49 c147 -34 259 -97
351 -195 45 -50 56 -69 66 -117 24 -116 -9 -340 -86 -570 -47 -143 -137 -360
-158 -381 -25 -25 -48 343 -28 450 18 92 14 219 -7 280 -62 179 -221 393 -368
494 -29 20 -53 40 -53 45 0 21 182 17 283 -6z"/>
<path d="M1475 2884 c-288 -45 -451 -254 -509 -652 l-6 -42 50 25 c149 75 324
73 397 -6 61 -67 98 -246 91 -443 -5 -130 -11 -153 -107 -396 -22 -57 -41
-104 -41 -105 0 0 18 -1 40 -1 47 -2 79 -21 117 -70 l28 -37 7 -331 c7 -362
16 -453 52 -524 67 -132 171 -166 343 -114 131 40 188 106 218 248 17 82 70
496 80 629 4 50 14 102 21 116 16 32 70 79 90 79 21 0 18 5 -30 73 -57 81
-236 433 -264 520 -90 277 -5 429 240 431 49 1 88 4 88 9 0 4 -16 40 -36 80
-129 256 -343 435 -587 492 -66 15 -232 26 -282 19z m258 -49 c241 -56 421
-197 561 -438 32 -56 29 -77 -13 -77 -105 0 -207 -48 -251 -117 -61 -96 -61
-218 1 -386 28 -78 200 -418 247 -490 l25 -38 -31 -32 c-46 -48 -61 -93 -73
-228 -5 -68 -12 -125 -14 -128 -1 -3 -6 -40 -10 -81 -10 -107 -52 -388 -65
-431 -29 -100 -115 -161 -257 -182 -130 -19 -205 27 -242 148 -27 87 -32 156
-36 486 -2 175 -8 306 -14 322 -19 49 -61 95 -108 118 -43 21 -44 23 -38 57 3
19 10 42 16 51 23 42 78 192 89 246 23 106 11 352 -22 465 -26 92 -71 148
-148 183 -62 28 -174 27 -265 -2 -37 -12 -70 -20 -72 -17 -10 10 20 142 51
226 69 186 183 300 344 346 59 16 253 16 325 -1z"/>
<path d="M545 2866 c-225 -53 -340 -199 -365 -464 -14 -152 10 -323 92 -647
114 -451 261 -752 386 -790 44 -13 81 16 218 172 l135 154 -35 39 c-48 53 -92
143 -107 219 -9 50 -9 89 1 196 8 86 11 182 6 267 -16 313 67 605 217 765 l30
32 -39 10 c-160 43 -218 52 -344 56 -95 4 -153 1 -195 -9z m270 -27 c102 -13
224 -39 229 -48 3 -4 -9 -27 -26 -51 -81 -121 -137 -272 -162 -445 -14 -90
-20 -300 -20 -675 -1 -100 1 -108 36 -183 21 -43 49 -92 63 -108 14 -17 25
-34 25 -38 0 -4 -13 -20 -28 -37 -15 -16 -64 -72 -110 -125 -127 -150 -149
-157 -224 -79 -121 126 -282 575 -364 1019 -62 336 -3 590 162 700 101 66 254
92 419 70z"/>
<path d="M2197 2186 c-52 -19 -75 -42 -88 -89 -24 -90 16 -220 144 -472 51
-99 93 -182 94 -184 7 -11 15 12 29 83 15 71 15 91 0 235 -15 143 -15 170 -1
272 8 63 15 126 15 142 l0 27 -77 0 c-43 -1 -95 -7 -116 -14z m97 -32 c40 -15
-9 -84 -59 -84 -29 0 -76 37 -69 55 10 26 90 44 128 29z m45 -111 c-8 -53 -6
-162 6 -354 5 -88 4 -128 -3 -133 -7 -4 -32 32 -64 91 -87 161 -138 301 -138
379 0 48 3 50 40 29 41 -24 86 -18 122 14 18 16 36 28 39 25 3 -2 3 -25 -2
-51z"/>
<path d="M1190 2184 c-51 -10 -146 -45 -185 -68 l-39 -24 -4 -189 c-9 -389
-10 -362 21 -425 50 -102 143 -174 248 -192 35 -6 36 -5 48 36 7 24 33 93 58
153 25 61 52 133 60 160 31 111 8 417 -37 490 -29 47 -101 71 -170 59z m-16
-130 c10 -14 34 -33 54 -41 33 -14 41 -14 80 0 l43 15 11 -27 c7 -15 12 -91
12 -181 1 -145 -1 -160 -26 -225 -59 -156 -105 -257 -119 -266 -23 -12 -129
41 -162 81 -57 67 -80 129 -80 210 0 194 14 445 27 458 7 7 39 24 72 37 l59
24 6 -29 c4 -16 14 -41 23 -56z m125 75 c44 -16 55 -40 30 -67 -11 -12 -30
-24 -43 -28 -31 -8 -84 20 -99 53 -9 21 -8 27 8 39 23 17 61 18 104 3z"/>
<path d="M2375 1180 c-31 -12 -43 -31 -51 -78 -6 -39 -5 -41 22 -49 45 -12
186 -6 253 11 69 18 144 53 181 86 l25 22 -25 -6 c-132 -31 -251 -29 -329 5
-48 21 -48 21 -76 9z m66 -41 c12 -6 48 -16 82 -23 l62 -13 -40 -12 c-60 -16
-160 -14 -175 4 -10 13 -10 19 5 35 20 23 37 25 66 9z"/>
<path d="M1307 1111 c-64 -79 -104 -102 -219 -127 -43 -9 -78 -21 -78 -25 0
-16 86 -33 165 -34 118 0 213 46 265 130 19 31 20 36 6 69 -14 34 -41 56 -69
56 -8 0 -40 -31 -70 -69z m102 5 c40 -48 -106 -162 -197 -154 l-37 3 46 27
c26 15 69 52 95 82 50 56 73 66 93 42z"/>
</svg>
